<svg data-v-423bf9ae="" xmlns="http://www.w3.org/2000/svg" viewBox="0 0 282 90" class="iconLeftSlogan"><!----><!----><!----><g data-v-423bf9ae="" id="a1b238a5-d825-4002-9ebb-3990857b1a2a" fill="#262C4C" transform="matrix(6.1224488604322,0,0,6.1224488604322,125.93785673198668,-4.285714427340487)"><path d="M3.47 5.60L4.72 10.50L3.30 10.50L1.54 4.06L2.91 4.06L2.91 2.25L1.54 2.25L1.54 3.65L1.54 4.06L1.54 6.12L1.54 8.96L1.54 10.50L0 10.50L0 9.48L0 1.22L0 0.70L0.99 0.70L1.54 0.70L3.05 0.70L3.33 0.70L3.33 0.70Q3.77 0.70 4.07 0.98L4.07 0.98L4.07 0.98Q4.38 1.26 4.44 1.68L4.44 1.68L4.45 1.82L4.45 4.48L4.45 4.48Q4.45 4.91 4.17 5.23L4.17 5.23L4.17 5.23Q3.88 5.54 3.47 5.60L3.47 5.60ZM6.90 0.70L6.90 0.70L9.37 0.70L9.37 1.68L9.37 2.24L6.90 2.24L6.90 4.07L8.86 4.07L8.86 4.35L8.86 5.33L8.86 5.61L6.90 5.61L6.90 8.96L9.37 8.96L9.37 9.52L9.37 10.50L6.90 10.50L5.36 10.50L5.36 9.48L5.36 4.07L6.90 4.07L5.36 1.04L5.36 0.70L6.90 0.70ZM13.79 0.70L13.79 0.70L13.79 0.70Q14.20 0.77 14.46 1.08L14.46 1.08L14.46 1.08Q14.73 1.39 14.73 1.81L14.73 1.81L14.73 2.84L14.73 3.29L13.19 3.29L13.19 2.84L13.19 2.23L11.82 2.23L11.82 8.97L13.19 8.97L13.19 8.34L13.19 7.90L14.73 7.90L14.73 8.34L14.73 9.39L14.73 9.39Q14.73 9.81 14.46 10.12L14.46 10.12L14.46 10.12Q14.20 10.43 13.79 10.50L13.79 10.50L11.21 10.50L11.21 10.50Q10.81 10.43 10.54 10.12L10.54 10.12L10.54 10.12Q10.28 9.81 10.28 9.39L10.28 9.39L10.28 1.81L10.28 1.81Q10.28 1.39 10.54 1.08L10.54 1.08L10.54 1.08Q10.81 0.77 11.21 0.70L11.21 0.70L13.79 0.70ZM16.56 0.70L19.15 0.70L19.15 0.70Q19.54 0.77 19.81 1.08L19.81 1.08L19.81 1.08Q20.08 1.40 20.08 1.81L20.08 1.81L20.08 2.86L20.08 3.28L20.08 3.30L20.08 8.36L20.08 9.41L20.08 9.41Q20.08 9.81 19.81 10.12L19.81 10.12L19.81 10.12Q19.54 10.43 19.15 10.50L19.15 10.50L16.56 10.50L16.56 10.50Q16.17 10.43 15.90 10.12L15.90 10.12L15.90 10.12Q15.64 9.81 15.64 9.41L15.64 9.41L15.64 1.81L15.64 1.81Q15.64 1.40 15.90 1.08L15.90 1.08L15.90 1.08Q16.17 0.77 16.56 0.70L16.56 0.70ZM18.54 3.30L18.54 3.28L18.54 2.86L18.54 2.24L17.18 2.24L17.18 8.97L18.54 8.97L18.54 8.36L18.54 3.30ZM24.49 0.70L24.49 0.70L25.47 0.70L25.47 0.70L25.47 10.50L25.47 10.50L23.93 10.50L23.93 10.50L22.53 6.12L22.53 10.50L22.53 10.50L20.99 10.50L20.99 0.70L21.55 0.70L21.55 0.70L22.53 0.70L22.53 0.70L22.53 0.73L23.93 5.35L23.93 0.70L24.49 0.70L24.49 0.70Z"></path></g><defs data-v-423bf9ae=""><linearGradient data-v-423bf9ae="" gradientTransform="rotate(25)" id="5e8f51fc-1ec2-471a-821d-97e8b4794deb" x1="0%" y1="0%" x2="100%" y2="0%"><stop data-v-423bf9ae="" offset="0%" style="stop-color: rgb(233, 13, 218); stop-opacity: 1;"></stop><stop data-v-423bf9ae="" offset="100%" style="stop-color: rgb(21, 207, 241); stop-opacity: 1;"></stop></linearGradient></defs><g data-v-423bf9ae="" id="bc86f19e-47e3-4e72-9e32-86098ec5e493" transform="matrix(1.3817455599642747,0,0,1.3817455599642747,-15.422208340006904,-23.654589026520412)" stroke="none" fill="url(#5e8f51fc-1ec2-471a-821d-97e8b4794deb)"><path d="M87.655 46.812l-8.104-7.126c1.856-3.468 5.897-11.929 4.358-17.309-.511-1.786-1.606-3.163-3.168-3.981a8.264 8.264 0 0 0-3.872-.963c-5.317 0-9.852 4.96-11.771 7.416-2.527-.819-8.061-2.295-15.098-2.295-7.035 0-12.569 1.476-15.097 2.294-1.919-2.456-6.455-7.416-11.771-7.416-1.35 0-2.652.324-3.872.963-1.562.818-2.657 2.195-3.168 3.981-1.539 5.38 2.501 13.84 4.358 17.309l-8.105 7.127a2 2 0 0 0 .338 3.244c8.509 4.801 14.74 12.421 20.238 19.144C39.028 76.669 43.852 82.567 50 82.567S60.972 76.669 67.079 69.2c5.498-6.723 11.729-14.343 20.238-19.144a1.999 1.999 0 0 0 .338-3.244zm-9.808 5.041a2.976 2.976 0 0 0-.86-.646L71.075 48.3c-.35-2.621-2.569-4.649-5.286-4.649a5.29 5.29 0 0 0-2.67.739l-3.545-1.743a3 3 0 0 0-2.647 5.385l3.586 1.763c.383 2.583 2.587 4.57 5.276 4.57.948 0 1.826-.268 2.599-.699l4.899 2.408c-3.517 3.546-6.585 7.271-9.305 10.596C58.761 73.054 54.251 78.567 50 78.567s-8.761-5.514-13.982-11.898c-2.719-3.325-5.788-7.05-9.305-10.596l4.9-2.408a5.305 5.305 0 0 0 2.599.699c2.69 0 4.894-1.987 5.276-4.571l3.585-1.762a3 3 0 0 0-2.647-5.385l-3.545 1.743a5.293 5.293 0 0 0-2.67-.739c-2.716 0-4.937 2.029-5.286 4.649l-5.912 2.906c-.335.165-.619.39-.86.647-1.619-1.361-3.315-2.661-5.122-3.835l7.273-6.395a2 2 0 0 0 .404-2.515c-2.402-4.092-5.821-11.955-4.769-15.632.211-.739.586-1.228 1.179-1.539a4.242 4.242 0 0 1 2.015-.506c3.856 0 8.078 4.991 9.378 6.912a2.003 2.003 0 0 0 2.409.737c.063-.025 6.379-2.528 15.081-2.528 8.704 0 15.02 2.503 15.08 2.527a2 2 0 0 0 2.412-.736c1.294-1.922 5.501-6.912 9.378-6.912.706 0 1.365.166 2.015.506.593.311.967.799 1.178 1.537 1.051 3.668-2.368 11.537-4.77 15.634a2.002 2.002 0 0 0 .404 2.514l7.272 6.395c-1.807 1.176-3.503 2.476-5.123 3.837zM42.728 65.625l14.545.001a.5.5 0 0 1 .354.854l-7.272 7.271a.498.498 0 0 1-.708 0l-7.273-7.272a.499.499 0 0 1 .354-.854z"></path></g><!----><g data-v-423bf9ae="" id="72c6a99d-7cb4-46e3-9e38-9246d4463919" fill="#262C4C" transform="matrix(0.5356419831958098,0,0,0.5356419831958098,125.78788390843597,58.68767833356583)"><path d="M3.96 11.69L0.73 2.80L0.28 2.80L3.99 12.95L6.93 3.79L9.87 12.95L13.58 2.80L13.13 2.80L9.90 11.69L6.93 2.45ZM22.54 7.48L26.88 7.48L26.88 7.08L22.54 7.08L22.54 3.21L27.16 3.21L27.16 2.80L22.12 2.80L22.12 12.60L27.16 12.60L27.16 12.19L22.54 12.19ZM48.16 2.80ZM47.74 2.80L47.74 12.60L48.16 12.60L48.16 8.48L49.71 8.48L52.84 12.60L53.38 12.60L50.19 8.47C51.09 8.41 51.80 8.15 52.34 7.67C52.88 7.20 53.14 6.52 53.14 5.64C53.14 4.71 52.84 4.00 52.23 3.52C51.63 3.04 50.83 2.80 49.84 2.80ZM48.16 3.21L49.84 3.21C50.71 3.21 51.40 3.41 51.93 3.83C52.45 4.24 52.71 4.85 52.71 5.64C52.71 6.44 52.45 7.04 51.93 7.45C51.40 7.87 50.71 8.08 49.84 8.08L48.16 8.08ZM62.20 7.48L66.54 7.48L66.54 7.08L62.20 7.08L62.20 3.21L66.82 3.21L66.82 2.80L61.78 2.80L61.78 12.60L66.82 12.60L66.82 12.19L62.20 12.19ZM76.10 7.70C76.10 6.33 76.48 5.22 77.25 4.38C78.01 3.53 79.01 3.11 80.26 3.11C81.46 3.11 82.51 3.54 83.41 4.41L83.41 3.81C82.56 3.06 81.51 2.69 80.26 2.69C78.91 2.69 77.80 3.16 76.94 4.09C76.07 5.03 75.64 6.23 75.64 7.70C75.64 9.17 76.07 10.37 76.94 11.30C77.80 12.24 78.91 12.71 80.26 12.71C81.51 12.71 82.56 12.34 83.41 11.59L83.41 11.03C82.54 11.87 81.49 12.29 80.26 12.29C79.01 12.29 78.01 11.87 77.25 11.03C76.48 10.18 76.10 9.07 76.10 7.70ZM92.65 7.70C92.65 6.38 93.06 5.29 93.87 4.41C94.68 3.53 95.71 3.09 96.95 3.09C98.19 3.09 99.22 3.53 100.03 4.41C100.84 5.29 101.25 6.38 101.25 7.70C101.25 9.02 100.84 10.11 100.03 10.99C99.22 11.87 98.19 12.31 96.95 12.31C95.71 12.31 94.68 11.87 93.87 10.99C93.06 10.11 92.65 9.02 92.65 7.70ZM92.23 7.70C92.23 9.16 92.68 10.36 93.57 11.30C94.46 12.24 95.59 12.71 96.95 12.71C98.31 12.71 99.44 12.24 100.33 11.30C101.22 10.36 101.67 9.16 101.67 7.70C101.67 6.24 101.22 5.04 100.33 4.10C99.44 3.16 98.31 2.69 96.95 2.69C95.59 2.69 94.46 3.16 93.57 4.10C92.68 5.04 92.23 6.24 92.23 7.70ZM117.56 2.80L117.56 11.79L110.07 2.45L110.07 12.60L110.49 12.60L110.49 3.61L117.98 12.95L117.98 2.80ZM138.56 7.64L142.48 7.64L142.48 7.24L138.56 7.24L138.56 3.21L142.62 3.21L142.62 2.80L138.14 2.80L138.14 12.60L138.56 12.60ZM151.58 7.70C151.58 6.38 151.98 5.29 152.80 4.41C153.61 3.53 154.63 3.09 155.88 3.09C157.12 3.09 158.14 3.53 158.96 4.41C159.77 5.29 160.17 6.38 160.17 7.70C160.17 9.02 159.77 10.11 158.96 10.99C158.14 11.87 157.12 12.31 155.88 12.31C154.63 12.31 153.61 11.87 152.80 10.99C151.98 10.11 151.58 9.02 151.58 7.70ZM151.16 7.70C151.16 9.16 151.60 10.36 152.50 11.30C153.39 12.24 154.51 12.71 155.88 12.71C157.24 12.71 158.37 12.24 159.26 11.30C160.15 10.36 160.59 9.16 160.59 7.70C160.59 6.24 160.15 5.04 159.26 4.10C158.37 3.16 157.24 2.69 155.88 2.69C154.51 2.69 153.39 3.16 152.50 4.10C151.60 5.04 151.16 6.24 151.16 7.70ZM169.97 2.80ZM169.55 2.80L169.55 12.60L169.97 12.60L169.97 8.48L171.53 8.48L174.65 12.60L175.20 12.60L172.00 8.47C172.90 8.41 173.62 8.15 174.15 7.67C174.69 7.20 174.96 6.52 174.96 5.64C174.96 4.71 174.65 4.00 174.05 3.52C173.44 3.04 172.64 2.80 171.65 2.80ZM169.97 3.21L171.65 3.21C172.52 3.21 173.22 3.41 173.74 3.83C174.26 4.24 174.52 4.85 174.52 5.64C174.52 6.44 174.26 7.04 173.74 7.45C173.22 7.87 172.52 8.08 171.65 8.08L169.97 8.08ZM200.17 2.80L197.16 8.16L194.28 2.80L193.75 2.80L196.94 8.62L196.94 12.60L197.39 12.60L197.39 8.61L200.70 2.80ZM209.03 7.70C209.03 6.38 209.44 5.29 210.25 4.41C211.06 3.53 212.09 3.09 213.33 3.09C214.57 3.09 215.60 3.53 216.41 4.41C217.22 5.29 217.63 6.38 217.63 7.70C217.63 9.02 217.22 10.11 216.41 10.99C215.60 11.87 214.57 12.31 213.33 12.31C212.09 12.31 211.06 11.87 210.25 10.99C209.44 10.11 209.03 9.02 209.03 7.70ZM208.61 7.70C208.61 9.16 209.06 10.36 209.95 11.30C210.84 12.24 211.97 12.71 213.33 12.71C214.69 12.71 215.82 12.24 216.71 11.30C217.60 10.36 218.05 9.16 218.05 7.70C218.05 6.24 217.60 5.04 216.71 4.10C215.82 3.16 214.69 2.69 213.33 2.69C211.97 2.69 210.84 3.16 209.95 4.10C209.06 5.04 208.61 6.24 208.61 7.70ZM226.94 2.80L226.94 9.24C226.94 10.29 227.22 11.13 227.79 11.77C228.36 12.42 229.12 12.74 230.06 12.74C231.00 12.74 231.76 12.42 232.33 11.77C232.90 11.13 233.18 10.29 233.18 9.24L233.18 2.80L232.76 2.80L232.76 9.24C232.76 10.17 232.51 10.92 232.00 11.47C231.49 12.02 230.85 12.29 230.06 12.29C229.28 12.29 228.63 12.02 228.12 11.47C227.61 10.92 227.36 10.17 227.36 9.24L227.36 2.80Z"></path></g></svg>